<svg xmlns="http://www.w3.org/2000/svg" viewBox="-6 -6 313.75 125.25" width="313.8mm" height="125.3mm">
<title>KeyboardShapes Reference 60% ANSI — top view, 1 unit = 1 mm (estimated)</title>
<path d="M297.75 0.00L298.79 0.14L299.75 0.54L300.58 1.17L301.21 2.00L301.61 2.96L301.75 4.00L301.75 109.25L301.61 110.28L301.21 111.25L300.58 112.08L299.75 112.71L298.79 113.11L297.75 113.25L4.00 113.25L2.96 113.11L2.00 112.71L1.17 112.08L0.54 111.25L0.14 110.28L0.00 109.25L0.00 4.00L0.14 2.96L0.54 2.00L1.17 1.17L2.00 0.54L2.96 0.14L4.00 0.00Z" fill="#cbd5e1" stroke="#475569" stroke-width=".8"/>
<path d="M297.55 3.00L298.00 3.06L298.24 3.16L298.44 3.31L298.59 3.51L298.69 3.75L298.75 4.20L298.75 109.05L298.69 109.50L298.59 109.74L298.44 109.94L298.24 110.09L298.00 110.19L297.55 110.25L4.20 110.25L3.75 110.19L3.51 110.09L3.31 109.94L3.16 109.74L3.06 109.50L3.00 109.05L3.00 4.20L3.06 3.75L3.16 3.51L3.31 3.31L3.51 3.16L3.75 3.06L4.20 3.00Z" fill="#f8fafc" stroke="#94a3b8" stroke-width=".4" stroke-dasharray="2 1"/>
<rect x="8.50" y="8.50" width="18.05" height="18.05" rx="1.6" fill="#e2e8f0" stroke="#94a3b8" stroke-width=".4"/><rect x="27.55" y="8.50" width="18.05" height="18.05" rx="1.6" fill="#e2e8f0" stroke="#94a3b8" stroke-width=".4"/><rect x="46.60" y="8.50" width="18.05" height="18.05" rx="1.6" fill="#e2e8f0" stroke="#94a3b8" stroke-width=".4"/><rect x="65.65" y="8.50" width="18.05" height="18.05" rx="1.6" fill="#e2e8f0" stroke="#94a3b8" stroke-width=".4"/><rect x="84.70" y="8.50" width="18.05" height="18.05" rx="1.6" fill="#e2e8f0" stroke="#94a3b8" stroke-width=".4"/><rect x="103.75" y="8.50" width="18.05" height="18.05" rx="1.6" fill="#e2e8f0" stroke="#94a3b8" stroke-width=".4"/><rect x="122.80" y="8.50" width="18.05" height="18.05" rx="1.6" fill="#e2e8f0" stroke="#94a3b8" stroke-width=".4"/><rect x="141.85" y="8.50" width="18.05" height="18.05" rx="1.6" fill="#e2e8f0" stroke="#94a3b8" stroke-width=".4"/><rect x="160.90" y="8.50" width="18.05" height="18.05" rx="1.6" fill="#e2e8f0" stroke="#94a3b8" stroke-width=".4"/><rect x="179.95" y="8.50" width="18.05" height="18.05" rx="1.6" fill="#e2e8f0" stroke="#94a3b8" stroke-width=".4"/><rect x="199.00" y="8.50" width="18.05" height="18.05" rx="1.6" fill="#e2e8f0" stroke="#94a3b8" stroke-width=".4"/><rect x="218.05" y="8.50" width="18.05" height="18.05" rx="1.6" fill="#e2e8f0" stroke="#94a3b8" stroke-width=".4"/><rect x="237.10" y="8.50" width="18.05" height="18.05" rx="1.6" fill="#e2e8f0" stroke="#94a3b8" stroke-width=".4"/><rect x="256.15" y="8.50" width="37.10" height="18.05" rx="1.6" fill="#e2e8f0" stroke="#94a3b8" stroke-width=".4"/><rect x="8.50" y="27.55" width="27.58" height="18.05" rx="1.6" fill="#e2e8f0" stroke="#94a3b8" stroke-width=".4"/><rect x="37.08" y="27.55" width="18.05" height="18.05" rx="1.6" fill="#e2e8f0" stroke="#94a3b8" stroke-width=".4"/><rect x="56.13" y="27.55" width="18.05" height="18.05" rx="1.6" fill="#e2e8f0" stroke="#94a3b8" stroke-width=".4"/><rect x="75.17" y="27.55" width="18.05" height="18.05" rx="1.6" fill="#e2e8f0" stroke="#94a3b8" stroke-width=".4"/><rect x="94.22" y="27.55" width="18.05" height="18.05" rx="1.6" fill="#e2e8f0" stroke="#94a3b8" stroke-width=".4"/><rect x="113.27" y="27.55" width="18.05" height="18.05" rx="1.6" fill="#e2e8f0" stroke="#94a3b8" stroke-width=".4"/><rect x="132.32" y="27.55" width="18.05" height="18.05" rx="1.6" fill="#e2e8f0" stroke="#94a3b8" stroke-width=".4"/><rect x="151.38" y="27.55" width="18.05" height="18.05" rx="1.6" fill="#e2e8f0" stroke="#94a3b8" stroke-width=".4"/><rect x="170.42" y="27.55" width="18.05" height="18.05" rx="1.6" fill="#e2e8f0" stroke="#94a3b8" stroke-width=".4"/><rect x="189.47" y="27.55" width="18.05" height="18.05" rx="1.6" fill="#e2e8f0" stroke="#94a3b8" stroke-width=".4"/><rect x="208.53" y="27.55" width="18.05" height="18.05" rx="1.6" fill="#e2e8f0" stroke="#94a3b8" stroke-width=".4"/><rect x="227.57" y="27.55" width="18.05" height="18.05" rx="1.6" fill="#e2e8f0" stroke="#94a3b8" stroke-width=".4"/><rect x="246.63" y="27.55" width="18.05" height="18.05" rx="1.6" fill="#e2e8f0" stroke="#94a3b8" stroke-width=".4"/><rect x="265.68" y="27.55" width="27.58" height="18.05" rx="1.6" fill="#e2e8f0" stroke="#94a3b8" stroke-width=".4"/><rect x="8.50" y="46.60" width="32.34" height="18.05" rx="1.6" fill="#e2e8f0" stroke="#94a3b8" stroke-width=".4"/><rect x="41.84" y="46.60" width="18.05" height="18.05" rx="1.6" fill="#e2e8f0" stroke="#94a3b8" stroke-width=".4"/><rect x="60.89" y="46.60" width="18.05" height="18.05" rx="1.6" fill="#e2e8f0" stroke="#94a3b8" stroke-width=".4"/><rect x="79.94" y="46.60" width="18.05" height="18.05" rx="1.6" fill="#e2e8f0" stroke="#94a3b8" stroke-width=".4"/><rect x="98.99" y="46.60" width="18.05" height="18.05" rx="1.6" fill="#e2e8f0" stroke="#94a3b8" stroke-width=".4"/><rect x="118.04" y="46.60" width="18.05" height="18.05" rx="1.6" fill="#e2e8f0" stroke="#94a3b8" stroke-width=".4"/><rect x="137.09" y="46.60" width="18.05" height="18.05" rx="1.6" fill="#e2e8f0" stroke="#94a3b8" stroke-width=".4"/><rect x="156.14" y="46.60" width="18.05" height="18.05" rx="1.6" fill="#e2e8f0" stroke="#94a3b8" stroke-width=".4"/><rect x="175.19" y="46.60" width="18.05" height="18.05" rx="1.6" fill="#e2e8f0" stroke="#94a3b8" stroke-width=".4"/><rect x="194.24" y="46.60" width="18.05" height="18.05" rx="1.6" fill="#e2e8f0" stroke="#94a3b8" stroke-width=".4"/><rect x="213.29" y="46.60" width="18.05" height="18.05" rx="1.6" fill="#e2e8f0" stroke="#94a3b8" stroke-width=".4"/><rect x="232.34" y="46.60" width="18.05" height="18.05" rx="1.6" fill="#e2e8f0" stroke="#94a3b8" stroke-width=".4"/><rect x="251.39" y="46.60" width="41.86" height="18.05" rx="1.6" fill="#e2e8f0" stroke="#94a3b8" stroke-width=".4"/><rect x="8.50" y="65.65" width="41.86" height="18.05" rx="1.6" fill="#e2e8f0" stroke="#94a3b8" stroke-width=".4"/><rect x="51.36" y="65.65" width="18.05" height="18.05" rx="1.6" fill="#e2e8f0" stroke="#94a3b8" stroke-width=".4"/><rect x="70.41" y="65.65" width="18.05" height="18.05" rx="1.6" fill="#e2e8f0" stroke="#94a3b8" stroke-width=".4"/><rect x="89.46" y="65.65" width="18.05" height="18.05" rx="1.6" fill="#e2e8f0" stroke="#94a3b8" stroke-width=".4"/><rect x="108.51" y="65.65" width="18.05" height="18.05" rx="1.6" fill="#e2e8f0" stroke="#94a3b8" stroke-width=".4"/><rect x="127.56" y="65.65" width="18.05" height="18.05" rx="1.6" fill="#e2e8f0" stroke="#94a3b8" stroke-width=".4"/><rect x="146.61" y="65.65" width="18.05" height="18.05" rx="1.6" fill="#e2e8f0" stroke="#94a3b8" stroke-width=".4"/><rect x="165.66" y="65.65" width="18.05" height="18.05" rx="1.6" fill="#e2e8f0" stroke="#94a3b8" stroke-width=".4"/><rect x="184.71" y="65.65" width="18.05" height="18.05" rx="1.6" fill="#e2e8f0" stroke="#94a3b8" stroke-width=".4"/><rect x="203.76" y="65.65" width="18.05" height="18.05" rx="1.6" fill="#e2e8f0" stroke="#94a3b8" stroke-width=".4"/><rect x="222.81" y="65.65" width="18.05" height="18.05" rx="1.6" fill="#e2e8f0" stroke="#94a3b8" stroke-width=".4"/><rect x="241.86" y="65.65" width="51.39" height="18.05" rx="1.6" fill="#e2e8f0" stroke="#94a3b8" stroke-width=".4"/><rect x="8.50" y="84.70" width="22.81" height="18.05" rx="1.6" fill="#e2e8f0" stroke="#94a3b8" stroke-width=".4"/><rect x="32.31" y="84.70" width="22.81" height="18.05" rx="1.6" fill="#e2e8f0" stroke="#94a3b8" stroke-width=".4"/><rect x="56.12" y="84.70" width="22.81" height="18.05" rx="1.6" fill="#e2e8f0" stroke="#94a3b8" stroke-width=".4"/><rect x="79.94" y="84.70" width="118.06" height="18.05" rx="1.6" fill="#e2e8f0" stroke="#94a3b8" stroke-width=".4"/><rect x="199.00" y="84.70" width="22.81" height="18.05" rx="1.6" fill="#e2e8f0" stroke="#94a3b8" stroke-width=".4"/><rect x="222.81" y="84.70" width="22.81" height="18.05" rx="1.6" fill="#e2e8f0" stroke="#94a3b8" stroke-width=".4"/><rect x="246.62" y="84.70" width="22.81" height="18.05" rx="1.6" fill="#e2e8f0" stroke="#94a3b8" stroke-width=".4"/><rect x="270.44" y="84.70" width="22.81" height="18.05" rx="1.6" fill="#e2e8f0" stroke="#94a3b8" stroke-width=".4"/>
</svg>